<svg width="342" height="216" viewBox="0 0 342 216" fill="none" xmlns="http://www.w3.org/2000/svg">
<g clip-path="url(#clip0_1_103)">
<rect width="341.233" height="215.626" rx="10.4673" fill="#07764D"/>
<path d="M262.063 32.9686L266.663 47.428H266.84L271.449 32.9686H275.91L269.349 52H264.164L257.594 32.9686H262.063ZM282.224 32.9686V52H278.2V32.9686H282.224ZM295.859 38.442C295.784 37.6924 295.465 37.11 294.901 36.695C294.338 36.2799 293.573 36.0724 292.606 36.0724C291.949 36.0724 291.395 36.1653 290.943 36.3511C290.49 36.5308 290.144 36.7817 289.902 37.1039C289.667 37.426 289.549 37.7915 289.549 38.2004C289.536 38.5411 289.608 38.8385 289.763 39.0925C289.924 39.3465 290.144 39.5664 290.422 39.7523C290.701 39.9319 291.023 40.0899 291.389 40.2262C291.754 40.3563 292.145 40.4678 292.56 40.5607L294.27 40.9696C295.1 41.1555 295.862 41.4033 296.556 41.713C297.249 42.0228 297.85 42.4038 298.358 42.856C298.866 43.3083 299.26 43.841 299.538 44.4544C299.823 45.0677 299.969 45.7708 299.975 46.5638C299.969 47.7285 299.672 48.7383 299.083 49.5932C298.501 50.4419 297.658 51.1017 296.556 51.5725C295.459 52.0372 294.136 52.2695 292.588 52.2695C291.051 52.2695 289.713 52.0341 288.573 51.5632C287.439 51.0924 286.554 50.3955 285.915 49.4724C285.284 48.5431 284.952 47.3939 284.921 46.0248H288.815C288.858 46.6629 289.041 47.1957 289.363 47.6232C289.691 48.0444 290.128 48.3635 290.673 48.5803C291.225 48.7909 291.847 48.8962 292.541 48.8962C293.223 48.8962 293.814 48.7971 294.316 48.5989C294.824 48.4006 295.217 48.125 295.496 47.7718C295.775 47.4187 295.914 47.0129 295.914 46.5545C295.914 46.127 295.787 45.7677 295.533 45.4765C295.286 45.1854 294.92 44.9376 294.437 44.7331C293.96 44.5287 293.374 44.3428 292.68 44.1756L290.608 43.6552C289.004 43.2649 287.737 42.6547 286.808 41.8245C285.878 40.9944 285.417 39.8762 285.423 38.4699C285.417 37.3176 285.723 36.3109 286.343 35.4498C286.969 34.5886 287.827 33.9165 288.917 33.4333C290.007 32.95 291.246 32.7084 292.634 32.7084C294.046 32.7084 295.279 32.95 296.332 33.4333C297.392 33.9165 298.216 34.5886 298.804 35.4498C299.393 36.3109 299.696 37.3083 299.715 38.442H295.859ZM305.528 52H301.216L307.786 32.9686H312.971L319.532 52H315.22L310.453 37.3176H310.304L305.528 52ZM305.258 44.5194H315.443V47.6603H305.258V44.5194Z" fill="white"/>
<path opacity="0.2" d="M395.235 142.093C294.465 167.976 90.6965 203.805 81.7845 140.065C70.6445 60.3888 198.594 52.1199 204.834 52.546M204.834 52.546C211.073 52.9721 321.449 51.5086 355.87 31.3761L382.981 86.5762C298.908 103.65 126.036 126.642 107.139 82.0246C96.5883 57.1147 97.8941 37.6023 117.506 23.8198M204.834 52.546C135.688 56.6217 117.804 35.0934 117.506 23.8198M117.506 23.8198C133.022 12.9154 152.286 5.59782 166.286 2.0317L117.506 23.8198Z" stroke="#D6D8D9" stroke-width="1.04673"/>
<path d="M37.8382 56.5805C37.2256 56.5805 36.6049 56.3455 36.1374 55.8755L32.8728 52.5936H28.2541C26.9241 52.5936 25.8521 51.5078 25.8521 50.1788V45.5355L22.5794 42.2455C21.6444 41.3055 21.6444 39.7659 22.5794 38.8259L25.844 35.544V30.9007C25.844 29.5636 26.9241 28.4859 28.2461 28.4859H32.8648L36.1293 25.204C37.0644 24.264 38.5959 24.264 39.5309 25.204L42.7954 28.4859H47.4142C48.7442 28.4859 49.8162 29.5717 49.8162 30.9007V35.544L53.0808 38.8259C54.0158 39.7659 54.0158 41.3055 53.0808 42.2455L49.8162 45.5274V50.1707C49.8162 51.5078 48.7361 52.5855 47.4142 52.5855H42.8116L39.547 55.8674C39.0714 56.3455 38.4588 56.5805 37.8382 56.5805Z" fill="#F8AE00"/>
<path d="M54.0158 38.9312L50.4047 35.3009V30.1633C50.4047 28.9153 49.3971 27.9024 48.1557 27.9024H43.0453L39.4342 24.2721C38.5556 23.3888 37.1288 23.3888 36.2502 24.2721L32.6391 27.9024H27.5287C26.2873 27.9024 25.2797 28.9153 25.2797 30.1633V35.3009L21.6686 38.9312C20.79 39.8145 20.79 41.2488 21.6686 42.1321L25.2797 45.7624V50.9C25.2797 52.1479 26.2873 53.1609 27.5287 53.1609H32.6391L36.2502 56.7912C37.1288 57.6745 38.5556 57.6745 39.4342 56.7912L43.0453 53.1609H48.1557C49.3971 53.1609 50.4047 52.1479 50.4047 50.9V45.7624L54.0158 42.1321C54.8944 41.2488 54.8944 39.8145 54.0158 38.9312ZM52.5165 41.654L49.0102 45.179V50.1707C49.0102 51.0459 48.3008 51.759 47.4303 51.759H42.465L38.9586 55.284C38.3379 55.9079 37.3384 55.9079 36.7258 55.284L33.2194 51.759H28.2541C27.3836 51.759 26.6742 51.0459 26.6742 50.1707V45.179L23.1679 41.654C22.5472 41.03 22.5472 40.0252 23.1679 39.4093L26.6742 35.8843V30.8926C26.6742 30.0174 27.3836 29.3043 28.2541 29.3043H33.2194L36.7258 25.7793C37.3465 25.1553 38.346 25.1553 38.9586 25.7793L42.465 29.3043H47.4303C48.3008 29.3043 49.0102 30.0174 49.0102 30.8926V35.8843L52.5165 39.4093C53.1372 40.0333 53.1372 41.0381 52.5165 41.654Z" stroke="#008669" stroke-miterlimit="10"/>
<path d="M36.6855 27.6674L25.046 39.3688C24.4092 40.009 24.4092 41.0543 25.046 41.7026L27.9075 44.5793C28.8344 43.4448 30.2612 42.124 32.3327 41.1434C36.7661 39.0528 39.4503 40.949 42.1989 37.6914C43.9158 35.6574 43.5209 33.4614 43.0533 32.1891C42.868 31.7029 42.5778 31.2653 42.215 30.8926L39.0069 27.6674C38.3621 27.0272 37.3223 27.0272 36.6855 27.6674Z" fill="#008669"/>
<path d="M38.9988 53.3959L50.6383 41.6945C51.2751 41.0543 51.2751 40.009 50.6383 39.3607L47.7768 36.484C46.8499 37.6184 45.4231 38.9393 43.3515 39.9198C38.9182 42.0105 36.234 40.1143 33.4854 43.3719C31.7685 45.4059 32.1634 47.6019 32.6309 48.8741C32.8163 49.3603 33.1065 49.7979 33.4692 50.1707L36.6774 53.3959C37.3222 54.036 38.362 54.036 38.9988 53.3959Z" fill="#008669"/>
<path d="M54.0158 38.9312L50.4047 35.3009V30.1633C50.4047 28.9153 49.3971 27.9024 48.1557 27.9024H43.0453L39.4342 24.2721C38.5556 23.3888 37.1288 23.3888 36.2502 24.2721L32.6391 27.9024H27.5287C26.2873 27.9024 25.2797 28.9153 25.2797 30.1633V35.3009L21.6686 38.9312C20.79 39.8145 20.79 41.2488 21.6686 42.1321L25.2797 45.7624V50.9C25.2797 52.1479 26.2873 53.1609 27.5287 53.1609H32.6391L36.2502 56.7912C37.1288 57.6745 38.5556 57.6745 39.4342 56.7912L43.0453 53.1609H48.1557C49.3971 53.1609 50.4047 52.1479 50.4047 50.9V45.7624L54.0158 42.1321C54.8944 41.2488 54.8944 39.8145 54.0158 38.9312ZM52.5165 41.654L49.0102 45.179V50.1707C49.0102 51.0459 48.3008 51.759 47.4303 51.759H42.465L38.9586 55.284C38.3379 55.9079 37.3384 55.9079 36.7258 55.284L33.2194 51.759H28.2541C27.3836 51.759 26.6742 51.0459 26.6742 50.1707V45.179L23.1679 41.654C22.5472 41.03 22.5472 40.0252 23.1679 39.4093L26.6742 35.8843V30.8926C26.6742 30.0174 27.3836 29.3043 28.2541 29.3043H33.2194L36.7258 25.7793C37.3465 25.1553 38.346 25.1553 38.9586 25.7793L42.465 29.3043H47.4303C48.3008 29.3043 49.0102 30.0174 49.0102 30.8926V35.8843L52.5165 39.4093C53.1372 40.0333 53.1372 41.0381 52.5165 41.654Z" fill="#008669"/>
<path d="M120.369 48.704H123.273V42.3165L128.482 48.704H132L126.091 41.4178L131.527 35.8669H128.129L123.278 40.8243V31H120.375V48.704H120.369ZM105.562 35.8669L110.492 48.184L110.367 48.5231C109.82 49.9645 108.938 50.2698 108.215 50.2698C107.947 50.2698 107.629 50.2472 107.372 50.168V52.7739C107.629 52.8756 108.175 53 108.853 53C111.232 53 112.405 51.4342 113.413 48.851L118.468 35.8613H115.388L112.092 44.8885L108.676 35.8613H105.562V35.8669ZM100.319 45.0355C100.319 47.4887 101.429 48.9301 103.809 48.9301C104.486 48.9301 105.004 48.8058 105.26 48.704V46.0868C105.044 46.149 104.828 46.1999 104.549 46.1999C103.757 46.1999 103.239 45.6799 103.239 44.6567V31H100.324V45.0355H100.319ZM87.5894 42.2826C87.5894 39.739 89.3485 38.3597 91.1532 38.3597C92.9635 38.3597 94.717 39.739 94.717 42.2826C94.717 44.8263 92.9578 46.2055 91.1532 46.2055C89.3428 46.1999 87.5894 44.8207 87.5894 42.2826ZM84.5664 42.2826C84.5664 46.5334 87.5495 48.9358 90.6294 48.9358C92.7301 48.9358 94.0793 47.8505 94.6828 46.9517V48.7097H97.5976V35.8669H94.6828V37.6136C94.085 36.7261 92.7358 35.6408 90.6294 35.6408C87.5495 35.6408 84.5664 38.0206 84.5664 42.2826ZM68 48.704H71.0059V40.9769H79.4485V48.704H82.4544V31H79.4485V38.2467H71.0059V31H68V48.704Z" fill="white"/>
</g>
<defs>
<clipPath id="clip0_1_103">
<rect width="341.233" height="215.626" rx="10.4673" fill="white"/>
</clipPath>
</defs>
</svg>
